#!OML:ASF G:\JayActor3\Patient Classification 1\Patient 1\Session 6\male.ASF
:FULLY-SPECIFIED
:DEGREES
1090
root 5.71989 16.2371 0.014784 514.677 -82.9528 -520.396
lowerback -0.476591 -2.44517 -0.404816
upperback 4.78578 -3.51277 2.73731
thorax 5.42049 -1.88886 2.87534
lowerneck 16.3252 -5.33175 -2.74246
upperneck -2.11294 -7.69459 0.34265
head -3.45548 -3.8388 1.21557
rclavicle 2.80286e-014 -2.46493e-014
rhumerus -38.8999 31.0117 -99.3276
rradius 118.559
rwrist -75.9608
rhand -31.4048 -23.2163
rfingers 7.12502
rthumb -4.67404 -53.1447
lclavicle 2.80286e-014 -2.46493e-014
lhumerus -38.2279 20.1708 69.6986
lradius 24.1652
lwrist 25.2173
lhand -14.4622 10.4718
lfingers 7.12502
lthumb 11.6834 40.1261
rfemur -18.3979 11.6256 17.4468
rtibia 44.9385
rfoot -4.0163 16.7963
rtoes 18.1818
lfemur 4.77774 10.8476 -20.1308
ltibia 25.3307
lfoot -25.4911 18.1891
ltoes 5.48242
1091
root 5.74886 16.2185 0.0257862 516.914 -82.4661 -522.703
lowerback -0.318667 -2.46648 -0.663587
upperback 4.86425 -3.52628 2.57688
thorax 5.41886 -1.90406 2.85791
lowerneck 16.7167 -5.29705 -2.77897
upperneck -2.77241 -7.63622 0.690051
head -3.75299 -3.80996 1.36941
rclavicle 4.82053e-015 -3.57812e-015
rhumerus -38.8895 30.7661 -99.1842
rradius 118.696
rwrist -76.1499
rhand -32.2136 -23.5516
rfingers 7.12502
rthumb -5.45494 -53.4614
lclavicle 4.82053e-015 -3.57812e-015
lhumerus -37.6648 19.7068 69.5143
lradius 24.3866
lwrist 25.1132
lhand -14.2809 10.3774
lfingers 7.12502
lthumb 11.8583 40.0216
rfemur -18.8454 11.6182 17.2594
rtibia 45.3387
rfoot -3.46405 17.2005
rtoes 18.6235
lfemur 4.90374 10.7648 -20.4359
ltibia 25.1151
lfoot -26.0487 18.6397
ltoes 6.4263
1092
root 5.77717 16.1998 0.0371274 518.598 -81.992 -524.468
lowerback -0.158333 -2.48212 -0.882392
upperback 4.95068 -3.53548 2.4207
thorax 5.42194 -1.916 2.82275
lowerneck 17.1559 -5.26419 -2.83374
upperneck -3.81818 -7.57297 1.17301
head -3.70879 -3.79518 1.40391
rclavicle -2.75814e-015 2.38542e-015
rhumerus -38.902 30.4973 -99.028
rradius 118.843
rwrist -76.2904
rhand -33.0868 -24.0308
rfingers 7.12502
rthumb -6.298 -53.9171
lclavicle -2.75814e-015 2.38542e-015
lhumerus -37.0551 19.3087 69.3108
lradius 24.5855
lwrist 24.9592
lhand -14.208 10.4113
lfingers 7.12502
lthumb 11.9285 40.0515
rfemur -19.2424 11.5767 17.1009
rtibia 45.6916
rfoot -2.90491 17.6065
rtoes 19.0633
lfemur 5.036 10.6974 -20.6919
ltibia 24.9147
lfoot -26.5642 19.0393
ltoes 7.23767
1093
root 5.80482 16.182 0.0491125 519.735 -81.5358 -525.701
lowerback 0.0131051 -2.49557 -1.04995
upperback 5.04326 -3.54559 2.27609
thorax 5.42289 -1.92699 2.77134
lowerneck 17.4071 -5.24282 -2.87752
upperneck -4.39596 -7.52134 1.54543
head -3.91129 -3.7793 1.54089
rclavicle -9.98893e-015 9.93923e-015
rhumerus -38.963 30.1991 -98.872
rradius 118.994
rwrist -76.3614
rhand -33.975 -24.6252
rfingers 7.12502
rthumb -7.15539 -54.4842
lclavicle -9.98893e-015 9.93923e-015
lhumerus -36.415 18.9934 69.0926
lradius 24.7656
lwrist 24.751
lhand -14.2795 10.5716
lfingers 7.12502
lthumb 11.8596 40.2158
rfemur -19.57 11.4968 16.9861
rtibia 45.9797
rfoot -2.32741 18.006
rtoes 19.5165
lfemur 5.1685 10.6462 -20.8834
ltibia 24.7537
lfoot -27.0311 19.3833
ltoes 7.90366
1094
root 5.83197 16.1662 0.0617677 520.355 -81.0977 -526.428
lowerback 0.198058 -2.5078 -1.155
upperback 5.13837 -3.55795 2.14476
thorax 5.4159 -1.93705 2.69929
lowerneck 17.5904 -5.2309 -2.92996
upperneck -4.90405 -7.47955 1.92768
head -4.08154 -3.77163 1.67992
rclavicle 8.44835e-015 -7.95139e-016
rhumerus -39.0831 29.8672 -98.7252
rradius 119.144
rwrist -76.3797
rhand -34.8184 -25.3021
rfingers 7.12502
rthumb -7.96949 -55.1319
lclavicle 8.44835e-015 -7.95139e-016
lhumerus -35.756 18.7784 68.8546
lradius 24.9325
lwrist 24.484
lhand -14.4787 10.8077
lfingers 7.12502
lthumb 11.6675 40.4628
rfemur -19.8263 11.3807 16.9274
rtibia 46.1935
rfoot -1.73265 18.3848
rtoes 19.973
lfemur 5.28833 10.6269 -20.9931
ltibia 24.6485
lfoot -27.4315 19.6583
ltoes 8.40953
1095
root 5.85856 16.1531 0.0749346 520.6 -80.675 -526.791
lowerback 0.38643 -2.5177 -1.20906
upperback 5.23705 -3.57026 2.02462
thorax 5.40825 -1.94544 2.61056
lowerneck 17.7248 -5.22699 -2.99307
upperneck -5.34883 -7.44688 2.32326
head -4.22398 -3.77165 1.823
rclavicle -4.48756e-014 1.86858e-014
rhumerus -39.2712 29.4953 -98.5939
rradius 119.285
rwrist -76.3698
rhand -35.5645 -25.9654
rfingers 7.12502
rthumb -8.68954 -55.7665
lclavicle -4.48756e-014 1.86858e-014
lhumerus -35.0838 18.6977 68.59
lradius 25.068
lwrist 24.1446
lhand -14.8023 11.0027
lfingers 7.12502
lthumb 11.3554 40.6752
rfemur -20.0121 11.2412 16.9174
rtibia 46.3329
rfoot -1.12729 18.7289
rtoes 20.3976
lfemur 5.39279 10.6351 -21.0336
ltibia 24.605
lfoot -27.7703 19.8754
ltoes 8.77252
1096
root 5.88465 16.1431 0.0881084 520.604 -80.2686 -526.92
lowerback 0.575135 -2.52582 -1.23058
upperback 5.33351 -3.58188 1.91215
thorax 5.39646 -1.9523 2.51183
lowerneck 17.8184 -5.23309 -3.0587
upperneck -5.73001 -7.42573 2.72445
head -4.34005 -3.77995 1.96688
rclavicle 2.74074e-014 -3.57812e-015
rhumerus -39.5389 29.0722 -98.4861
rradius 119.413
rwrist -76.3643
rhand -36.3081 -26.6918
rfingers 7.12502
rthumb -9.40711 -56.4619
lclavicle 2.74074e-014 -3.57812e-015
lhumerus -34.4168 18.7524 68.3011
lradius 25.1862
lwrist 23.7527
lhand -15.2477 11.1217
lfingers 7.12502
lthumb 10.9259 40.8175
rfemur -20.1408 11.0899 16.9442
rtibia 46.407
rfoot -0.526315 19.0236
rtoes 20.7639
lfemur 5.47545 10.6622 -21.0218
ltibia 24.6199
lfoot -28.0504 20.0467
ltoes 9.01957
1097
root 5.9106 16.1363 0.100793 520.432 -79.8678 -526.863
lowerback 0.74968 -2.52747 -1.22074
upperback 5.42365 -3.58577 1.80595
thorax 5.38406 -1.95389 2.40206
lowerneck 17.8671 -5.25079 -3.11713
upperneck -6.04476 -7.41715 3.12418
head -4.42864 -3.79652 2.10767
rclavicle -3.516e-014 2.32578e-014
rhumerus -39.8748 28.594 -98.397
rradius 119.52
rwrist -76.3971
rhand -37.1397 -27.5198
rfingers 7.12502
rthumb -10.2095 -57.2521
lclavicle -3.516e-014 2.32578e-014
lhumerus -33.7633 18.9385 67.994
lradius 25.3063
lwrist 23.3289
lhand -15.7853 11.1293
lfingers 7.12502
lthumb 10.4072 40.8517
rfemur -20.2427 10.9482 17.009
rtibia 46.4296
rfoot 0.0585302 19.2512
rtoes 21.0521
lfemur 5.52203 10.6989 -20.9658
ltibia 24.6804
lfoot -28.286 20.1871
ltoes 9.19975
1098
root 5.93646 16.1325 0.112506 520.179 -79.4673 -526.701
lowerback 0.902046 -2.52076 -1.19045
upperback 5.499 -3.57815 1.70335
thorax 5.36702 -1.94836 2.28451
lowerneck 17.8776 -5.27774 -3.16282
upperneck -6.29418 -7.41786 3.51928
head -4.49137 -3.81935 2.24334
rclavicle -1.74434e-014 1.98785e-015
rhumerus -40.2769 28.0673 -98.331
rradius 119.598
rwrist -76.4728
rhand -38.0384 -28.3513
rfingers 7.12502
rthumb -11.0763 -58.0391
lclavicle -1.74434e-014 1.98785e-015
lhumerus -33.1369 19.2364 67.6789
lradius 25.4555
lwrist 22.9165
lhand -16.4133 11.0995
lfingers 7.12502
lthumb 9.80146 40.8514
rfemur -20.3434 10.8308 17.1029
rtibia 46.4166
rfoot 0.61973 19.4034
rtoes 21.2556
lfemur 5.52247 10.7335 -20.8844
ltibia 24.7739
lfoot -28.4872 20.3253
ltoes 9.33612
1099
root 5.96238 16.1314 0.122873 519.93 -79.0715 -526.508
lowerback 1.02536 -2.50745 -1.15579
upperback 5.55281 -3.56027 1.60253
thorax 5.3432 -1.93673 2.16603
lowerneck 17.8665 -5.31165 -3.19669
upperneck -6.49637 -7.42571 3.90922
head -4.53643 -3.84693 2.37456
rclavicle -3.60918e-014 9.24349e-015
rhumerus -40.734 27.5032 -98.2819
rradius 119.637
rwrist -76.5689
rhand -38.9802 -29.1648
rfingers 7.12502
rthumb -11.9846 -58.8017
lclavicle -3.60918e-014 9.24349e-015
lhumerus -32.5633 19.5746 67.3871
lradius 25.6864
lwrist 22.613
lhand -17.1231 11.0606
lfingers 7.12502
lthumb 9.11654 40.8436
rfemur -20.4651 10.7384 17.2117
rtibia 46.3814
rfoot 1.15067 19.4812
rtoes 21.3825
lfemur 5.4689 10.7411 -20.8028
ltibia 24.8862
lfoot -28.679 20.4797
ltoes 9.48777
1100
root 5.98867 16.133 0.131757 519.674 -78.6763 -526.259
lowerback 1.109 -2.48896 -1.11285
upperback 5.58087 -3.5339 1.50747
thorax 5.31438 -1.91968 2.04807
lowerneck 17.841 -5.34933 -3.21616
upperneck -6.66809 -7.43638 4.2901
head -4.57052 -3.87654 2.49995
rclavicle -1.90709e-015 -2.38542e-015
rhumerus -41.2163 26.9303 -98.2389
rradius 119.63
rwrist -76.6591
rhand -39.8586 -29.856
rfingers 7.12502
rthumb -12.8315 -59.4416
lclavicle -1.90709e-015 -2.38542e-015
lhumerus -32.0524 19.9087 67.1385
lradius 26.028
lwrist 22.4905
lhand -17.8979 11.0335
lfingers 7.12502
lthumb 8.36891 40.8477
rfemur -20.6338 10.6737 17.3398
rtibia 46.3332
rfoot 1.6446 19.4854
rtoes 21.4263
lfemur 5.34769 10.705 -20.7248
ltibia 25.0034
lfoot -28.8702 20.6735
ltoes 9.67189
